<?xml version="1.0" standalone="no"?>
<!DOCTYPE svg PUBLIC "-//W3C//DTD SVG 20010904//EN"
 "http://www.w3.org/TR/2001/REC-SVG-20010904/DTD/svg10.dtd">
<svg version="1.0" xmlns="http://www.w3.org/2000/svg"
 width="512.000000pt" height="512.000000pt" viewBox="0 0 512.000000 512.000000"
 preserveAspectRatio="xMidYMid meet">
<metadata>
Created by potrace 1.11, written by Peter Selinger 2001-2013
</metadata>
<g transform="translate(0.000000,512.000000) scale(0.100000,-0.100000)"
fill="#000000" stroke="none">
<path d="M2473 4663 c7 -12 -17 -36 -39 -39 -8 -1 -17 3 -21 8 -3 6 -2 8 4 5
5 -3 10 0 10 8 0 13 -3 13 -18 -1 -16 -14 -18 -14 -21 3 -3 15 -5 15 -10 -5
-3 -12 -3 -20 1 -18 4 3 13 0 21 -5 11 -7 8 -8 -10 -5 -14 2 -24 9 -22 16 1 6
-2 9 -7 6 -5 -4 -11 -1 -13 6 -3 9 -13 6 -31 -9 -26 -20 -27 -36 -1 -26 8 3
14 0 14 -7 0 -6 -4 -8 -10 -5 -5 3 -10 1 -10 -5 0 -6 -11 1 -24 15 -24 26 -24
26 -31 5 -5 -17 -9 -19 -21 -9 -12 10 -17 10 -27 0 -9 -10 -8 -11 7 -5 13 5
17 4 12 -4 -3 -6 -1 -14 5 -18 8 -5 9 -3 4 6 -5 8 -4 11 3 6 6 -3 15 2 21 11
6 10 10 14 10 8 0 -13 -18 -36 -44 -55 -19 -14 -19 -14 -5 4 14 18 13 19 -2
13 -11 -4 -21 0 -27 11 -8 14 -10 14 -11 2 0 -12 -2 -12 -9 -2 -7 11 -9 11
-14 -2 -4 -9 -13 -13 -22 -10 -8 3 -12 11 -8 18 3 6 2 7 -3 3 -5 -5 -9 -14 -9
-20 0 -7 -8 -11 -18 -11 -17 2 -17 0 -2 -22 11 -18 12 -23 3 -22 -7 2 -12 -4
-10 -12 2 -8 0 -12 -4 -8 -4 4 -14 2 -23 -4 -9 -8 -8 -3 3 10 17 19 17 22 3
16 -10 -3 -17 -1 -17 5 0 6 -5 11 -11 11 -5 0 -8 -4 -5 -9 8 -12 -16 -29 -37
-26 -9 2 -15 -1 -11 -6 3 -5 10 -7 15 -4 5 4 9 2 9 -4 0 -5 -12 -11 -27 -13
-18 -2 -27 -8 -25 -17 2 -11 -4 -10 -25 4 l-28 18 20 -23 c19 -22 19 -23 1
-17 -13 5 -17 3 -13 -8 4 -8 -1 -21 -9 -30 -12 -12 -20 -13 -37 -4 -21 12 -22
11 -4 -8 17 -20 17 -20 -20 -17 -23 2 -32 0 -23 -6 7 -5 15 -19 17 -32 2 -17
1 -19 -6 -9 -8 12 -12 13 -25 2 -12 -10 -13 -17 -6 -26 8 -10 6 -13 -7 -11
-10 0 -18 -5 -19 -11 -1 -7 -3 -16 -4 -20 -1 -5 -2 -12 0 -18 1 -5 -7 -2 -17
7 -18 16 -19 16 -20 -4 -1 -11 -7 -26 -14 -32 -9 -8 -10 -8 -6 0 9 15 -20 27
-29 12 -4 -6 -3 -8 3 -5 6 4 13 -3 16 -14 3 -12 3 -18 0 -15 -10 9 -33 -15
-26 -27 4 -6 1 -7 -6 -3 -9 6 -8 13 5 27 9 10 13 19 8 19 -5 0 -15 -9 -22 -21
-11 -17 -11 -23 0 -37 12 -15 11 -15 -11 0 -13 9 -30 14 -39 11 -10 -4 -13 -2
-8 5 3 6 2 13 -3 16 -5 4 -8 -5 -6 -19 1 -14 -2 -25 -7 -25 -5 0 -6 -4 -3 -10
3 -5 1 -10 -5 -10 -6 0 -8 11 -6 24 4 23 3 24 -20 14 -13 -6 -24 -15 -24 -20
0 -4 -6 -7 -12 -5 -7 1 -12 -4 -10 -12 2 -8 -3 -11 -12 -8 -10 4 -20 -2 -28
-16 -6 -12 -10 -24 -9 -25 2 -2 -1 -7 -5 -10 -4 -4 -4 -1 0 6 5 8 1 11 -11 9
-26 -4 -44 -17 -38 -28 4 -5 1 -9 -4 -9 -6 0 -11 4 -11 9 0 6 -9 9 -19 8 -11
0 -17 -5 -14 -11 4 -5 -1 -7 -10 -3 -11 4 -14 2 -10 -8 4 -12 10 -12 26 -4 17
9 19 9 11 0 -6 -7 -20 -14 -30 -16 -11 -1 -18 -8 -16 -15 2 -9 -5 -8 -22 4
-25 16 -26 16 -16 -9 7 -19 7 -24 -2 -19 -8 5 -9 2 -5 -10 4 -11 3 -15 -4 -11
-6 4 -8 12 -6 19 2 6 0 20 -4 31 l-9 20 1 -20 c2 -39 -1 -47 -16 -41 -8 3 -14
2 -14 -2 3 -18 -2 -32 -12 -32 -5 0 -7 5 -3 12 4 7 3 8 -4 4 -6 -4 -9 -13 -5
-21 4 -13 -5 -19 -27 -17 -8 1 -5 -42 3 -54 3 -6 0 -11 -8 -11 -8 0 -12 4 -10
8 9 14 -25 18 -39 4 -7 -8 -17 -11 -20 -7 -4 3 -4 -1 0 -11 3 -9 10 -17 16
-17 5 0 7 4 4 9 -3 5 1 14 8 20 12 10 14 9 11 -6 -1 -10 3 -25 9 -33 9 -13 9
-13 -6 -2 -23 18 -31 -7 -9 -33 16 -20 16 -20 -6 -1 -13 10 -20 23 -17 27 3 5
-2 6 -10 3 -9 -3 -16 -10 -16 -16 0 -5 5 -6 10 -3 6 3 10 2 10 -3 0 -17 -13
-22 -29 -10 -12 9 -11 7 2 -8 15 -18 16 -23 3 -33 -8 -7 -13 -18 -10 -26 3 -7
2 -15 -3 -18 -4 -3 -8 8 -8 23 -1 16 3 26 7 24 4 -3 5 2 2 10 -7 19 -25 22
-22 4 2 -7 -2 -12 -9 -13 -6 0 -15 -4 -20 -9 -5 -5 -3 -6 5 -2 17 10 27 -21
12 -39 -16 -19 -22 -127 -6 -118 6 4 5 0 -2 -9 -11 -14 -10 -18 5 -27 10 -6
13 -11 8 -11 -6 0 -16 5 -23 12 -16 16 -16 -4 1 -21 10 -11 10 -13 0 -7 -8 4
-13 1 -13 -7 0 -20 11 -28 25 -17 8 7 12 5 12 -4 0 -14 -9 -15 -39 -2 -13 6
-15 12 -8 26 5 9 7 20 3 23 -3 4 0 13 6 21 8 10 9 16 1 21 -6 4 -9 1 -8 -7 2
-7 -3 -12 -10 -10 -9 2 -10 -3 -4 -15 12 -22 4 -45 -11 -36 -9 5 -9 3 0 -8 7
-9 8 -20 3 -28 -13 -22 -1 -39 25 -37 16 2 22 -1 18 -10 -3 -8 -9 -12 -13 -9
-16 10 -22 -16 -8 -32 7 -10 8 -14 1 -10 -6 4 -13 2 -15 -5 -3 -7 -7 -5 -11 6
-4 11 -3 15 4 10 8 -4 8 -1 1 12 -6 11 -10 22 -11 27 -1 4 -4 7 -8 7 -5 0 -8
-3 -8 -7 0 -5 -4 -15 -10 -23 -7 -13 -6 -13 7 -2 13 11 16 9 17 -13 3 -48 4
-55 13 -55 4 0 8 -5 8 -11 0 -5 -4 -8 -9 -4 -5 3 -12 1 -16 -5 -4 -6 -11 -7
-17 -4 -7 5 -9 1 -5 -9 3 -9 2 -19 -4 -22 -5 -4 -8 -1 -7 7 2 7 -4 12 -14 10
-12 -2 -16 2 -12 12 3 8 1 17 -5 21 -7 3 -8 0 -5 -9 4 -11 0 -14 -15 -11 -12
2 -19 0 -16 -5 3 -4 -1 -11 -7 -13 -10 -4 -10 -6 0 -6 13 -1 17 -37 4 -45 -10
-6 -43 19 -35 27 3 4 12 -1 19 -11 12 -15 13 -15 14 -1 0 28 -28 30 -55 3 -29
-29 -30 -31 -10 -31 8 0 11 5 8 10 -4 6 -1 7 7 2 9 -6 11 -4 5 6 -8 12 -6 12
8 0 9 -7 17 -19 16 -25 0 -7 -2 -6 -6 2 -2 6 -10 9 -16 5 -18 -11 -47 -14 -47
-4 0 5 -6 11 -14 14 -18 7 -14 -21 5 -34 10 -8 9 -9 -8 -4 -18 5 -21 2 -17
-17 l5 -23 -10 23 c-6 12 -9 28 -7 35 1 6 1 9 -1 4 -3 -4 -9 -4 -15 -1 -6 4
-5 -3 2 -15 8 -16 8 -26 1 -35 -6 -7 -7 -17 -3 -21 4 -5 1 -5 -5 -1 -8 4 -13
2 -13 -5 0 -7 -3 -9 -7 -6 -3 4 2 15 11 26 19 21 9 35 -14 20 -11 -6 -12 -9
-2 -9 7 0 10 -5 7 -10 -4 -6 -10 -8 -15 -5 -4 3 -16 2 -25 -1 -12 -5 -13 -9
-5 -14 9 -5 6 -10 -9 -15 -11 -3 -21 -14 -21 -23 1 -15 2 -15 11 1 6 9 14 15
20 12 8 -6 13 8 10 28 0 4 3 7 9 7 15 0 12 -26 -3 -39 -8 -6 -18 -7 -22 -3 -5
4 -6 0 -2 -10 9 -24 -4 -30 -25 -11 -20 18 -25 4 -5 -16 6 -7 8 -12 2 -11 -21
5 -29 -1 -15 -10 12 -7 11 -9 -5 -9 -48 1 -91 -23 -61 -34 11 -4 13 -1 10 11
-4 14 -3 13 6 -2 18 -27 -8 -41 -34 -18 -11 9 -16 11 -12 5 4 -7 2 -13 -4 -13
-6 0 -8 -4 -5 -10 5 -9 -6 -14 -26 -12 -3 1 -6 -11 -5 -26 0 -15 -5 -26 -11
-25 -7 1 -9 -6 -5 -19 3 -13 1 -19 -5 -15 -6 4 -14 0 -17 -9 -3 -9 -11 -12
-18 -8 -9 5 -9 3 1 -9 14 -18 26 -23 17 -8 -4 5 4 7 16 3 20 -5 21 -6 2 -13
-28 -10 -64 -47 -64 -65 0 -8 -5 -12 -10 -9 -9 6 -15 -8 -11 -29 1 -5 -5 -6
-12 -3 -12 4 -12 1 -3 -18 6 -13 14 -19 17 -13 4 5 9 2 13 -8 3 -9 4 -19 1
-22 -3 -3 -5 -1 -5 4 0 5 -11 11 -25 12 -21 1 -24 0 -13 -12 7 -8 16 -12 19
-10 3 2 6 -3 6 -10 0 -8 -8 -11 -21 -8 -19 5 -19 3 4 -16 14 -12 20 -21 13
-22 -6 0 -13 5 -15 12 -3 7 -12 9 -22 5 -15 -6 -16 -10 -6 -22 10 -12 10 -15
-1 -15 -11 0 -11 -2 1 -9 8 -6 17 -8 21 -5 4 2 11 0 14 -6 4 -6 1 -9 -7 -8 -7
2 -12 -3 -10 -10 1 -8 -2 -11 -9 -6 -7 4 -9 0 -5 -14 5 -14 1 -25 -12 -34 -13
-9 -19 -23 -17 -41 3 -22 0 -27 -11 -23 -12 4 -12 2 -4 -14 8 -14 8 -27 0 -42
-10 -21 -10 -22 3 -5 11 14 16 15 20 5 3 -7 4 -3 4 10 -1 12 -5 22 -10 22 -4
0 -5 5 -1 11 5 8 9 8 14 -1 5 -8 10 -8 14 -2 3 5 -1 13 -9 16 -13 4 -14 10 -5
26 6 11 7 20 3 20 -4 0 3 7 15 16 13 9 26 13 29 10 4 -3 1 -6 -6 -6 -7 0 -10
-4 -6 -9 3 -6 -3 -14 -12 -20 -15 -8 -16 -13 -6 -30 7 -12 9 -22 3 -26 -5 -3
-7 -14 -5 -24 2 -14 -7 -23 -36 -36 -22 -10 -37 -20 -35 -22 2 -3 14 1 26 7
18 10 24 8 35 -7 7 -10 11 -22 7 -27 -3 -5 3 -7 14 -3 18 7 18 6 -1 -8 -11 -9
-18 -19 -17 -23 2 -4 8 -15 14 -26 7 -13 7 -16 -1 -12 -6 4 -11 2 -11 -4 0 -8
-9 -10 -25 -6 -14 4 -25 2 -25 -3 0 -5 16 -8 36 -7 20 1 38 -3 41 -8 4 -5 1
-6 -5 -2 -8 4 -16 -3 -22 -18 -5 -14 -15 -26 -21 -26 -7 0 -10 -3 -7 -6 4 -3
16 -1 27 6 17 8 21 8 19 -2 -2 -7 3 -12 10 -11 18 4 15 -5 -8 -17 -17 -9 -19
-8 -14 7 5 15 4 16 -5 3 -17 -24 -13 -31 15 -26 20 4 23 2 15 -8 -6 -7 -8 -16
-5 -19 3 -3 8 -23 10 -44 2 -25 0 -33 -6 -23 -5 8 -6 18 -4 22 3 4 1 8 -5 8
-5 0 -8 -12 -7 -27 2 -16 -1 -35 -8 -43 -6 -8 -1 -7 11 4 23 19 78 32 68 16
-3 -5 -12 -7 -19 -4 -18 7 -42 -24 -29 -37 8 -8 13 -7 18 2 6 8 4 10 -5 4 -8
-5 -11 -4 -6 3 4 6 13 9 21 6 13 -5 13 -8 0 -21 -19 -18 -19 -27 0 -43 8 -7
13 -16 10 -20 -3 -5 -1 -11 5 -15 6 -4 8 -11 5 -16 -8 -12 69 -84 89 -84 5 0
11 -7 13 -15 4 -12 3 -12 -5 -2 -7 11 -10 9 -15 -7 -8 -31 -8 -31 0 -28 5 1 7
5 6 10 -2 4 2 7 7 7 6 0 10 -6 10 -13 0 -7 9 -18 20 -25 13 -8 20 -8 20 -1 0
5 5 7 11 3 8 -4 7 -9 -2 -14 -7 -5 -22 -2 -35 6 -15 10 -24 12 -29 4 -3 -6 -3
-10 2 -9 21 4 34 -2 27 -13 -4 -6 -3 -8 4 -4 6 3 22 -8 37 -26 15 -18 24 -27
20 -21 -4 9 -1 11 11 6 16 -6 15 -8 -4 -16 -25 -11 -29 -24 -7 -24 8 0 12 4 9
9 -7 11 3 10 27 -3 13 -7 18 -16 14 -28 -6 -19 17 -36 29 -23 14 14 32 8 32
-10 0 -18 -1 -18 -13 -2 -12 17 -13 17 -13 0 0 -10 -4 -14 -12 -10 -6 4 -8 3
-5 -3 8 -13 52 -9 52 4 0 6 3 14 7 18 3 4 5 -5 4 -19 -2 -14 1 -23 6 -19 6 3
7 -3 3 -17 -6 -20 -5 -21 8 -9 8 8 12 19 9 24 -3 6 4 2 16 -9 12 -10 19 -23
15 -28 -10 -17 18 -26 66 -23 42 3 44 3 17 -7 -20 -8 -25 -13 -15 -19 8 -4 19
-3 28 4 12 10 12 9 1 -13 -13 -24 -12 -24 5 -10 17 14 17 13 10 -9 -6 -21 -5
-22 8 -10 8 8 12 19 9 24 -3 6 1 4 10 -3 11 -9 18 -9 21 -2 3 6 4 5 3 -2 -2
-7 -8 -13 -14 -13 -5 0 -13 -3 -16 -6 -4 -4 4 -6 16 -5 13 1 32 -5 42 -13 11
-9 16 -10 12 -3 -5 8 0 12 16 12 13 0 30 6 38 13 12 10 12 9 1 -5 -10 -14 -9
-18 7 -27 11 -6 23 -7 27 -3 5 4 5 -1 2 -11 -4 -11 -3 -16 3 -12 6 3 14 -5 20
-19 5 -14 12 -26 14 -26 3 0 3 6 0 14 -3 8 -1 17 5 21 17 10 13 23 -10 30 -11
4 -18 9 -16 12 12 11 49 -20 44 -37 -3 -14 -1 -17 11 -13 9 4 13 2 9 -4 -12
-19 22 -8 39 13 8 10 13 13 9 7 -6 -12 6 -17 21 -10 3 1 12 -9 19 -23 l13 -25
-1 27 c-1 14 -5 24 -9 21 -5 -2 -8 1 -8 7 0 8 7 9 17 5 10 -4 23 -8 30 -8 7 0
10 -4 7 -8 -2 -5 -12 -5 -21 -2 -10 4 -14 2 -10 -4 4 -6 18 -11 32 -11 13 0
22 4 19 9 -3 5 0 10 5 10 33 4 41 3 40 -5 -1 -14 22 -25 39 -18 12 4 12 7 -3
18 -16 12 -16 13 3 11 11 0 20 -4 19 -7 -1 -3 8 -18 20 -33 14 -18 23 -23 26
-15 4 10 6 10 6 0 1 -10 5 -10 17 2 8 9 21 16 27 16 8 0 8 -3 2 -8 -16 -11
-41 -47 -28 -39 6 4 13 4 16 0 2 -5 3 -3 1 3 -1 6 7 16 18 23 16 10 19 10 12
-1 -14 -21 -12 -56 3 -51 10 4 11 9 3 18 -8 10 -8 15 1 21 8 5 9 3 4 -6 -6
-10 -4 -12 8 -7 9 3 24 -1 33 -11 10 -9 22 -17 28 -17 6 -1 10 -6 9 -13 -4
-18 14 -15 21 4 3 8 2 12 -3 9 -5 -3 -12 -1 -15 4 -4 5 7 7 25 4 21 -3 38 1
52 14 l22 18 -19 -22 c-11 -13 -17 -23 -15 -24 6 -1 32 -6 44 -9 23 -5 36 1
29 13 -4 7 -3 9 2 4 5 -5 10 -13 10 -18 1 -5 2 -14 3 -20 0 -5 6 -7 11 -4 6 3
10 2 10 -4 0 -20 -19 -21 -25 -1 -8 25 -21 26 -21 1 0 -11 4 -17 8 -15 5 3 11
-2 14 -10 3 -9 10 -16 16 -16 5 0 7 4 3 9 -3 5 -1 12 4 16 5 3 14 -3 20 -12 6
-11 11 -13 11 -5 0 8 5 10 13 6 7 -4 9 -3 4 2 -5 5 -14 9 -19 9 -6 0 -12 6
-14 13 -1 7 0 8 3 2 3 -7 10 -7 21 2 12 10 14 10 8 0 -9 -16 6 -16 23 1 10 8
12 8 7 0 -4 -7 1 -12 11 -12 10 -1 25 -1 33 -2 8 -1 22 1 30 3 8 3 12 3 7 1
-4 -3 -4 -10 -1 -15 4 -6 3 -8 -2 -5 -6 3 -16 2 -23 -2 -9 -6 -10 -11 -2 -15
6 -4 11 -3 11 2 0 5 16 9 35 7 19 -1 32 2 29 7 -3 4 -10 6 -15 3 -5 -4 -9 -1
-9 5 0 7 6 10 14 7 7 -3 18 -1 24 5 7 7 13 4 21 -10 6 -10 8 -21 6 -24 -3 -3
2 -5 10 -5 8 0 11 5 7 11 -20 33 4 42 45 16 17 -10 16 -10 -2 -8 -11 2 -23 7
-26 12 -4 4 -9 4 -12 0 -3 -5 1 -15 9 -22 9 -8 14 -9 14 -2 0 8 6 8 20 0 11
-6 20 -7 19 -3 -1 4 -1 17 1 28 l1 20 8 -20 c5 -11 7 -22 5 -25 -1 -3 6 -6 16
-7 10 -1 21 4 23 11 3 7 -1 13 -9 13 -7 0 -10 -5 -7 -10 3 -6 1 -7 -5 -3 -6 4
-8 14 -5 22 3 9 9 12 12 7 3 -5 20 -8 38 -7 18 0 30 -3 27 -7 -2 -4 -12 -6
-22 -3 -13 5 -14 4 -3 -4 20 -14 51 -3 45 16 -4 14 -3 13 6 -1 10 -15 14 -16
28 -5 15 12 16 11 3 -4 -7 -10 -17 -15 -22 -12 -5 3 -9 0 -9 -5 0 -6 3 -11 6
-11 10 0 49 23 55 33 4 5 9 5 13 -2 4 -6 3 -11 -1 -11 -5 0 -9 -10 -10 -21 -2
-17 1 -19 10 -10 19 19 28 12 10 -7 -10 -11 -23 -15 -28 -11 -6 4 -17 3 -25
-3 -12 -8 -12 -9 2 -4 10 3 20 1 24 -5 4 -6 14 -3 27 8 18 15 20 15 8 1 -14
-19 -6 -42 12 -31 7 4 6 0 -2 -10 -7 -9 -10 -17 -6 -17 4 0 3 -6 -3 -13 -9
-10 -7 -20 5 -38 16 -23 16 -23 0 -10 -15 12 -17 11 -17 -2 0 -9 8 -21 18 -26
10 -6 12 -11 4 -11 -7 0 -10 -4 -7 -10 4 -7 -3 -7 -22 0 -24 9 -26 8 -11 -3
15 -12 15 -16 3 -34 -12 -17 -12 -20 0 -20 8 0 12 4 10 8 -3 3 2 12 9 18 11 9
16 9 22 0 4 -7 3 -9 -4 -5 -6 3 -13 2 -17 -3 -3 -5 3 -14 12 -20 10 -6 13 -11
7 -11 -6 0 -10 -17 -9 -38 1 -25 -3 -39 -11 -39 -9 0 -10 5 -3 18 12 23 12 32
0 24 -6 -3 -8 4 -6 15 2 11 0 20 -4 20 -10 0 -7 -77 4 -109 3 -12 11 -18 17
-15 7 4 8 2 4 -5 -4 -6 -12 -9 -17 -6 -15 10 -10 -7 8 -29 10 -12 14 -18 9
-14 -5 4 -15 0 -22 -9 -10 -14 -9 -23 3 -48 15 -29 15 -29 -2 -15 -13 10 -16
11 -11 2 5 -8 1 -22 -11 -34 l-18 -21 28 18 c15 10 30 15 33 12 9 -8 -6 -28
-16 -22 -4 3 -11 -2 -14 -11 -4 -10 -12 -14 -24 -9 -13 5 -14 3 -6 -5 9 -9 17
-9 32 -1 28 15 40 14 18 -2 -18 -13 -12 -52 7 -40 6 4 7 1 2 -6 -5 -9 -13 -7
-29 8 -17 16 -23 18 -23 7 0 -8 5 -14 10 -13 5 1 12 -4 15 -12 3 -10 0 -11 -9
-5 -11 6 -12 5 -2 -7 10 -12 10 -18 0 -29 -10 -12 -9 -12 5 -1 10 7 16 16 14
20 -3 4 5 7 17 8 12 0 16 -1 9 -4 -6 -3 -9 -10 -6 -15 4 -6 2 -8 -3 -5 -6 4
-14 -1 -18 -11 -11 -25 -13 -52 -3 -46 8 5 12 -9 9 -32 -1 -7 5 -14 14 -18 8
-3 15 -10 15 -16 0 -6 -5 -8 -11 -4 -8 4 -8 0 0 -15 14 -25 23 -28 14 -5 -5
14 -3 14 15 3 11 -7 18 -18 15 -24 -4 -5 -3 -7 2 -3 4 4 15 2 24 -5 14 -11 14
-10 2 6 -8 10 -9 17 -3 17 6 0 14 -5 17 -10 4 -6 11 -8 16 -4 5 3 7 10 4 15
-3 5 0 6 8 3 8 -3 20 2 27 11 7 8 9 15 6 15 -8 0 29 55 52 79 11 11 11 15 0
22 -11 7 -11 9 0 9 7 0 11 4 7 9 -3 5 -1 12 4 15 5 4 13 1 17 -5 4 -7 3 -9 -4
-5 -6 3 -9 -1 -7 -11 1 -10 -2 -26 -6 -35 -6 -11 -5 -19 3 -24 7 -4 8 -3 4 4
-6 11 13 17 37 13 5 -1 6 3 2 8 -3 6 -12 8 -20 5 -9 -4 -12 1 -10 13 1 10 8
17 16 15 10 -3 10 0 -1 12 -10 13 -10 16 1 16 11 0 11 2 0 9 -10 6 -25 4 -42
-5 -22 -11 -29 -11 -35 -1 -4 6 -4 9 1 5 11 -11 47 11 39 24 -5 7 -2 8 6 3 10
-6 12 -4 6 10 -6 18 -6 18 16 -1 15 -12 18 -13 10 -2 -10 13 -10 17 0 22 9 4
9 5 -2 5 -30 -2 -41 1 -35 11 4 6 11 7 17 4 7 -5 8 -2 3 6 -6 10 -4 12 9 7 10
-4 15 -3 11 3 -10 16 -39 7 -52 -15 -7 -11 -12 -15 -13 -10 0 6 7 21 16 33 8
12 13 23 10 23 -3 1 -10 2 -15 3 -5 0 -12 4 -16 8 -9 9 17 5 33 -5 7 -5 10
-12 7 -17 -3 -4 5 -5 17 -2 19 5 20 7 6 10 -21 4 -23 13 -6 30 9 9 9 12 0 12
-16 0 -16 32 0 48 9 9 9 12 -1 12 -7 0 -11 9 -9 22 2 14 10 22 18 20 11 -2 10
2 -3 12 -21 16 -18 53 3 48 11 -3 11 0 1 11 -6 8 -8 17 -4 19 4 3 2 3 -4 2 -7
-2 -18 7 -24 19 -12 21 -11 21 6 7 17 -14 17 -14 7 7 -11 19 -9 22 11 26 18 4
17 4 -6 6 -16 0 -26 5 -22 11 4 6 11 7 17 4 7 -5 8 -2 4 5 -5 7 -14 10 -20 8
-7 -3 -13 1 -13 8 0 14 21 10 47 -9 13 -10 13 -9 1 6 -11 15 -11 18 0 18 8 0
5 6 -7 15 -14 11 -15 14 -4 15 13 0 13 1 0 10 -13 9 -13 10 0 10 9 0 11 3 5 8
-16 11 -18 44 -3 53 11 7 11 9 0 9 -7 0 -11 4 -7 10 3 5 12 7 20 3 8 -3 15 0
15 7 0 6 -4 9 -9 6 -5 -3 -15 1 -22 10 -10 12 -10 17 0 23 7 5 13 12 13 17 1
25 10 33 23 21 7 -7 10 -16 7 -21 -3 -5 0 -6 7 -2 6 4 9 11 7 15 -3 4 0 13 6
21 8 12 9 12 4 -2 -3 -10 -1 -18 5 -18 6 0 7 -6 3 -12 -6 -10 -4 -10 7 0 15
14 33 16 25 3 -7 -11 13 -9 32 2 12 8 16 2 13 -17 -1 -5 5 -4 13 3 8 7 13 21
11 31 -2 11 0 22 5 25 5 3 7 -4 5 -16 -3 -14 0 -19 9 -16 8 3 23 -1 34 -9 13
-9 23 -11 27 -4 6 10 5 11 -17 14 -6 0 -12 7 -14 14 -1 7 0 8 3 2 2 -5 9 -8
13 -5 5 3 16 -5 26 -17 9 -13 14 -16 11 -7 -3 9 -1 22 5 30 8 11 9 11 4 -3 -4
-15 0 -16 26 -11 22 4 29 3 24 -6 -4 -6 -11 -9 -15 -7 -4 3 -8 -2 -8 -10 0
-13 2 -13 15 0 14 13 17 13 29 -2 12 -16 13 -16 7 0 -4 13 -1 16 15 13 12 -2
26 -7 31 -10 6 -3 7 1 4 9 -3 9 -10 14 -14 11 -4 -3 -11 2 -14 10 -5 15 -5 15
35 -7 4 -1 17 6 29 17 13 12 20 14 18 6 -2 -7 3 -16 11 -19 9 -3 11 0 6 8 -5
9 -4 11 4 6 8 -6 9 -12 2 -20 -8 -9 -7 -13 4 -13 7 0 14 3 13 6 -2 18 3 31 11
31 5 0 7 -10 5 -22 -2 -13 -2 -18 1 -11 4 6 17 9 31 7 13 -2 24 0 24 6 0 5 5
10 11 10 6 0 9 -6 6 -13 -3 -8 1 -14 8 -14 7 0 11 7 8 15 -5 11 -1 13 15 7 14
-4 22 -2 22 5 0 6 -5 8 -12 4 -6 -4 -8 -3 -4 4 3 6 18 9 32 6 16 -3 23 -1 19
6 -3 6 0 7 10 4 11 -5 14 -2 9 12 -5 18 -5 18 6 1 9 -14 15 -16 26 -6 7 6 11
16 8 21 -3 5 3 4 14 -3 12 -7 18 -17 15 -22 -3 -5 -9 -4 -13 3 -5 8 -10 8 -14
2 -3 -5 1 -12 9 -16 8 -3 17 -1 21 5 4 6 12 5 22 -3 15 -11 15 -11 5 3 -9 10
-9 19 -2 26 6 6 5 10 -5 10 -8 0 -12 -5 -9 -11 4 -6 -3 -2 -15 8 -26 22 -30
35 -5 15 15 -12 16 -12 10 6 -7 20 -7 20 8 1 8 -11 15 -17 15 -13 0 4 9 3 20
-3 11 -6 17 -16 14 -22 -4 -7 -3 -8 5 -4 6 4 9 12 6 17 -4 5 -2 9 4 9 6 0 8 7
5 15 -4 9 0 16 7 17 8 0 19 2 24 2 20 3 36 18 32 30 -3 7 1 13 8 13 10 0 11
-5 5 -17 -5 -10 -6 -21 -2 -25 4 -5 1 -5 -7 0 -10 6 -12 4 -6 -6 5 -8 5 -11 0
-7 -4 4 -15 2 -23 -5 -13 -10 -14 -9 -8 2 6 9 5 12 -3 10 -25 -9 -15 -24 16
-25 17 0 32 2 31 5 -1 21 16 49 28 44 8 -3 14 -1 14 5 0 6 -6 13 -12 15 -8 3
-5 6 5 6 10 1 16 5 13 9 -3 5 1 9 9 9 12 0 12 -3 2 -16 -10 -12 -9 -14 6 -8
10 4 17 2 17 -6 0 -8 4 -6 10 3 9 14 14 7 11 -13 -1 -5 3 -6 9 -2 8 5 8 11 -1
21 -6 7 -15 11 -20 8 -5 -3 -9 0 -9 6 0 7 8 9 21 5 15 -5 19 -4 14 5 -6 9 -3
9 12 1 14 -7 24 -7 33 2 10 9 11 9 5 -2 -4 -8 -2 -17 6 -21 15 -10 29 -4 29
13 0 7 -4 6 -10 -3 -6 -9 -10 -10 -10 -3 0 6 4 14 8 17 13 8 35 -11 28 -23 -4
-6 -5 -11 -2 -11 3 0 12 12 21 28 13 22 15 23 10 5 -4 -13 -2 -24 4 -24 21 -3
26 -4 41 -14 13 -8 13 -7 1 8 -7 9 -17 14 -22 11 -5 -3 -9 0 -9 5 0 14 6 14
32 0 15 -8 23 -8 32 1 8 8 7 10 -5 5 -9 -3 -22 2 -30 12 -13 17 -13 17 5 3 15
-11 20 -12 23 -2 8 22 21 13 19 -13 -2 -16 1 -22 8 -17 15 9 37 9 61 -1 19 -8
19 -7 2 7 -11 8 -25 12 -32 10 -17 -7 -29 12 -14 22 8 5 9 3 4 -6 -5 -8 -3
-11 6 -8 8 3 24 1 36 -3 18 -7 21 -5 17 9 -5 14 -4 15 5 2 6 -8 11 -10 11 -5
0 6 10 -1 21 -15 20 -24 20 -24 9 -1 -9 18 -9 26 1 35 9 8 10 8 5 -1 -4 -7 3
-17 15 -23 17 -10 20 -9 14 1 -6 8 -4 11 7 7 8 -4 15 0 15 7 0 11 -5 11 -21 4
-21 -10 -21 -10 -1 6 24 19 41 14 38 -11 -1 -10 0 -13 3 -6 3 6 11 9 17 5 13
-8 -12 28 -28 39 -6 5 -6 8 1 8 6 0 17 -7 24 -15 7 -8 17 -12 24 -8 6 4 20 8
31 9 39 2 45 4 45 15 0 8 -4 8 -13 1 -7 -6 -22 -9 -32 -8 -11 2 -25 -1 -31 -6
-7 -5 -14 -4 -17 5 -3 9 2 13 16 12 12 -1 31 5 41 14 11 9 16 10 12 4 -4 -7
-3 -13 2 -13 17 0 22 13 10 29 -8 10 -4 9 10 -3 23 -20 30 -32 10 -20 -7 5 -8
3 -4 -5 8 -12 21 -7 21 8 0 4 8 16 18 26 10 9 16 24 13 31 -4 11 1 11 25 -2
17 -8 29 -12 26 -7 -3 4 1 19 10 33 8 14 12 17 9 7 -3 -10 -2 -15 3 -12 5 3
13 1 16 -5 5 -8 11 -7 21 1 7 6 11 15 8 21 -4 5 -10 5 -18 -1 -8 -7 -12 -4
-13 12 -1 12 1 17 5 12 14 -19 50 -15 55 6 5 17 9 19 26 10 14 -8 22 -8 27 1
4 6 3 8 -2 5 -6 -3 -16 -2 -24 3 -8 5 -19 5 -25 0 -6 -5 -17 -5 -25 1 -12 8
-11 9 5 7 11 -2 20 2 20 9 0 6 4 15 9 20 5 5 6 3 2 -4 -4 -7 -4 -13 1 -14 4 0
16 -2 26 -4 9 -2 15 1 11 6 -3 5 -9 7 -13 5 -4 -3 -8 1 -8 9 0 12 5 11 31 -1
25 -12 27 -12 14 -1 -10 8 -18 20 -18 26 0 7 -4 9 -10 6 -5 -3 -10 -1 -10 5 0
7 7 9 16 6 9 -3 18 -6 20 -6 3 0 2 -4 -1 -10 -3 -6 1 -7 10 -4 14 6 14 8 -2
21 -10 8 -12 11 -4 7 10 -5 12 -1 6 17 -5 19 -4 21 4 9 10 -13 15 -8 12 12 0
5 5 7 12 5 6 -1 11 5 9 13 -2 11 1 11 12 -3 12 -16 14 -16 20 -2 3 9 2 14 -2
12 -4 -3 -16 5 -27 16 -11 11 -14 17 -7 12 13 -7 56 28 46 37 -2 3 4 13 15 22
14 13 21 14 27 5 5 -8 3 -10 -7 -4 -11 6 -12 5 -2 -5 18 -19 27 -6 13 19 -7
15 -8 27 0 40 7 14 6 21 -3 25 -6 3 0 3 14 1 21 -2 26 1 24 13 -4 24 6 36 16
21 6 -10 8 -8 6 8 -2 12 -7 26 -12 30 -4 5 -5 1 0 -7 5 -8 5 -12 0 -8 -4 4
-14 0 -21 -10 -8 -11 -9 -19 -2 -23 7 -4 6 -9 -1 -13 -6 -4 -11 -2 -11 4 0 6
-6 8 -12 4 -7 -4 -4 2 6 14 11 12 15 22 10 22 -5 0 -1 5 9 11 9 6 14 16 11 22
-4 7 -4 9 1 5 15 -14 35 12 25 32 -12 23 -1 33 18 17 13 -10 14 -9 3 11 -6 12
-7 22 -2 22 5 0 11 -6 14 -12 3 -7 4 -3 4 8 -1 12 -6 20 -13 17 -6 -2 -14 3
-17 11 -4 10 -1 13 9 9 7 -3 14 -1 14 5 0 5 -7 12 -15 16 -8 3 -15 13 -14 23
0 14 2 15 6 3 10 -25 43 -41 43 -20 0 5 -3 9 -7 9 -19 -3 -23 2 -13 20 8 16 6
22 -7 30 -17 10 -17 10 -1 11 9 0 20 5 24 12 4 7 3 8 -4 4 -7 -4 -12 -3 -12 3
0 5 -6 11 -12 14 -7 2 -5 3 4 2 10 -2 21 2 25 7 3 6 2 9 -3 5 -5 -3 -18 2 -29
10 -20 15 -20 15 2 8 19 -5 22 -3 16 11 -4 12 -3 15 6 10 10 -6 10 -4 0 12 -7
12 -16 19 -19 17 -3 -2 -7 6 -7 18 -2 17 0 18 7 7 7 -11 9 -10 7 7 0 12 -5 19
-9 17 -4 -3 -8 -2 -9 3 0 4 -2 19 -3 31 -2 13 3 30 10 37 11 11 11 14 -2 19
-8 3 -12 2 -9 -3 3 -5 1 -13 -5 -16 -6 -4 -10 -3 -9 2 1 4 0 11 -1 16 -1 4 -3
13 -4 20 -1 6 -7 11 -14 9 -7 -1 -12 3 -12 9 0 6 7 8 16 5 10 -4 14 -1 11 6
-2 7 -13 12 -23 10 -16 -2 -17 -1 -4 7 8 6 11 11 6 11 -5 0 -3 6 3 14 8 10 9
16 1 21 -6 3 -8 10 -6 14 3 4 -1 8 -9 8 -10 0 -12 -4 -5 -12 6 -7 3 -11 -10
-11 -13 0 -16 5 -11 16 11 20 2 42 -12 33 -8 -4 -8 -1 1 9 10 12 9 18 -3 28
-8 7 -15 18 -15 24 0 6 5 4 10 -4 7 -11 10 -11 10 -2 0 10 5 10 23 1 22 -12
22 -12 2 8 -11 11 -22 17 -25 14 -8 -9 -40 -10 -35 -1 3 5 -4 12 -16 15 -11 4
-18 9 -16 12 3 2 15 -1 27 -7 17 -9 25 -9 34 1 8 9 8 10 -1 5 -16 -9 -43 3
-43 19 0 8 -9 17 -21 20 -15 5 -18 10 -10 18 6 6 11 14 11 18 0 13 -29 18 -36
7 -4 -6 -3 -8 4 -4 6 3 13 3 16 -2 2 -4 -6 -8 -19 -8 -13 0 -22 3 -19 7 2 4
-1 9 -8 12 -7 2 -5 3 5 2 9 -2 17 -1 17 2 0 3 -8 12 -17 20 -10 8 -13 12 -6 9
6 -4 14 -2 17 3 4 5 -1 8 -10 7 -8 -1 -20 -9 -25 -17 -5 -8 -9 -9 -9 -4 0 6 4
17 9 24 6 9 6 22 -1 34 -8 16 -12 17 -19 6 -5 -8 -9 -10 -9 -5 0 5 -8 2 -17
-5 -15 -12 -16 -12 -8 1 4 8 17 26 29 40 15 19 16 21 2 8 -17 -15 -21 -15 -42
-1 -13 8 -21 20 -17 26 4 6 1 7 -7 2 -10 -6 -8 -12 9 -27 13 -10 19 -18 14
-18 -5 0 -14 5 -21 12 -7 7 -12 8 -12 4 0 -5 -7 -3 -15 4 -8 7 -15 21 -15 31
0 11 -4 19 -10 19 -5 0 -7 -8 -4 -17 5 -15 3 -15 -11 2 -18 22 -36 26 -48 10
-5 -6 -6 -2 -3 8 3 10 6 23 6 28 0 6 5 7 10 4 6 -4 7 -12 3 -18 -4 -8 -1 -7 9
1 11 9 18 9 21 2 4 -7 5 -7 4 0 -2 7 -5 10 -9 8 -3 -2 -15 6 -27 16 -12 11
-21 16 -21 12 0 -4 -10 -2 -21 5 -12 6 -19 7 -15 1 7 -11 -21 -38 -31 -28 -3
3 -1 6 5 6 7 0 12 7 12 15 0 13 -4 14 -21 4 -13 -7 -19 -7 -15 -1 4 6 -2 15
-11 21 -10 6 -13 11 -7 11 5 0 16 -6 23 -12 11 -11 12 -10 6 1 -5 9 -1 19 11
29 18 14 18 14 -1 7 -11 -4 -29 -9 -40 -11 -16 -4 -16 -3 3 5 12 6 22 15 22
21 0 6 4 8 10 5 6 -4 7 1 3 12 -5 15 -3 16 8 6 18 -18 25 -16 26 7 1 11 -3 20
-8 20 -6 0 -7 5 -4 10 4 6 11 8 16 5 5 -3 6 1 3 9 -3 9 -2 16 3 16 5 0 10 7
10 15 0 8 -4 12 -9 9 -4 -3 -8 2 -8 10 0 18 16 30 23 16 3 -6 4 -5 2 2 -1 7
-7 12 -13 11 -13 -3 -22 21 -14 34 4 5 16 15 27 21 18 11 17 12 -8 8 -15 -3
-25 -1 -22 5 4 5 13 9 21 9 8 0 15 3 15 8 6 35 4 49 -7 49 -7 0 -11 -3 -9 -7
2 -4 -2 -7 -9 -7 -7 0 -13 6 -13 13 0 7 4 11 8 8 4 -2 10 0 14 6 4 6 12 7 18
3 7 -4 6 0 -2 10 -7 9 -10 17 -5 17 4 0 3 5 -4 12 -7 7 -16 8 -25 2 -7 -5 -3
0 10 11 29 26 29 31 1 39 -18 4 -20 8 -10 18 14 14 16 32 2 23 -5 -3 -10 -1
-10 4 0 16 11 13 32 -6 18 -16 18 -16 12 0 -3 9 -10 17 -16 17 -5 0 -7 9 -3
19 3 11 1 22 -4 26 -6 3 -8 0 -5 -8 7 -19 -12 -32 -22 -16 -4 8 -3 9 4 5 18
-11 14 4 -6 22 -10 10 -12 13 -5 9 18 -12 30 -1 28 25 -1 13 3 30 9 38 9 13 9
13 -5 3 -16 -13 -29 -8 -29 9 0 5 4 6 10 3 6 -3 7 1 4 9 -3 9 -10 16 -16 16
-5 0 -6 5 -3 10 4 6 1 9 -7 8 -7 -2 -12 3 -10 10 1 6 -2 12 -8 12 -5 0 -10 -7
-10 -15 0 -8 -5 -15 -11 -15 -7 0 -6 8 3 23 15 23 13 51 -3 41 -9 -5 -13 9
-10 33 1 6 -4 15 -10 19 -7 4 -9 3 -5 -4 3 -6 2 -14 -4 -17 -6 -4 -9 -1 -8 7
2 7 -2 12 -9 11 -15 -3 -8 38 9 49 9 5 10 8 1 8 -6 0 -15 -5 -19 -11 -5 -8
-10 -6 -16 5 -5 9 -13 14 -18 11 -4 -3 -6 4 -3 15 3 11 9 17 14 14 5 -3 7 -9
4 -14 -3 -5 -1 -11 4 -14 15 -10 6 21 -11 41 -9 10 -17 23 -18 28 -1 6 -9 8
-18 7 -14 -3 -14 -2 -1 15 13 16 13 17 -3 4 -15 -11 -19 -11 -24 3 -3 9 -11
16 -16 16 -6 0 -6 -6 1 -14 8 -10 9 -16 1 -21 -6 -4 -9 -1 -8 7 2 7 -4 12 -13
12 -11 -1 -15 6 -13 23 2 19 -1 23 -17 18 -11 -4 -19 -2 -19 5 0 7 -9 9 -22 6
-13 -3 -17 -3 -10 0 6 3 9 10 6 16 -4 7 0 7 13 0 16 -9 19 -7 20 11 1 12 -1
17 -5 12 -9 -13 -62 -16 -62 -3 0 5 5 6 11 2 8 -4 7 0 -1 15 -6 12 -19 25 -28
28 -9 4 -23 14 -30 22 -10 14 -11 13 -5 -4 6 -18 5 -18 -10 -6 -14 11 -15 17
-5 30 8 10 5 9 -10 -3 -13 -12 -22 -14 -22 -7 0 7 -4 10 -9 7 -5 -3 -12 1 -15
10 -4 9 -9 14 -13 11 -3 -4 -13 -1 -21 6 -13 10 -14 9 -4 -9 9 -18 8 -24 -6
-35 -15 -13 -16 -12 -3 4 15 19 9 22 -19 7 -16 -8 -18 -8 -14 5 3 8 10 12 15
9 5 -3 9 0 9 5 0 6 -9 11 -20 11 -11 0 -20 -7 -20 -15 0 -8 -4 -15 -10 -15 -5
0 -7 6 -4 14 5 14 -10 29 -33 32 -7 1 -13 -2 -13 -8 0 -12 -21 -6 -22 7 -1 15
-31 34 -42 27 -5 -3 -7 2 -3 12 4 10 3 15 -4 11 -5 -4 -7 -15 -4 -24 3 -11 -2
-24 -12 -32 -16 -13 -17 -12 -4 4 8 9 11 21 7 24 -4 4 -11 1 -15 -6 -5 -8 -11
-9 -15 -3 -3 5 1 12 9 16 8 3 15 11 14 18 0 9 -2 10 -5 1 -3 -6 -17 -9 -32 -7
-35 7 -37 10 -12 17 12 3 18 1 13 -5 -4 -7 -1 -8 6 -3 9 5 9 11 3 17 -6 6 -8
18 -5 27 4 13 3 14 -5 1 -6 -8 -9 -17 -7 -20 3 -5 -22 -6 -44 -1 -2 1 2 7 8
14 13 17 5 27 -17 20 -14 -4 -15 -3 -2 5 16 12 44 -4 34 -19 -3 -5 -1 -9 5 -9
5 0 9 9 8 19 0 11 -4 18 -8 15 -4 -2 -12 3 -18 10 -8 10 -9 16 -1 21 5 3 10 1
10 -4 0 -6 5 -11 12 -11 9 0 9 3 0 13 -7 6 -16 12 -20 12 -16 0 -51 32 -44 40
4 5 2 5 -5 2 -13 -8 -43 1 -43 14 0 4 6 6 14 3 8 -3 17 -1 21 5 4 7 0 8 -11 4
-13 -5 -15 -3 -9 7 5 9 4 11 -4 6 -7 -4 -15 2 -20 16 -7 15 -10 17 -10 7 -1
-10 -12 -19 -28 -22 -23 -4 -25 -3 -12 6 21 16 21 47 1 39 -10 -3 -13 -1 -8 6
4 7 -1 9 -15 7 -13 -3 -26 -10 -31 -17 -4 -7 -8 -8 -8 -3 0 6 5 16 11 22 9 9
5 14 -15 19 -14 3 -26 9 -26 13 -1 21 -19 32 -36 23 -26 -14 -57 8 -47 34 6
17 5 18 -12 4 -17 -14 -17 -13 -10 10 7 24 6 24 -7 6 -12 -15 -17 -16 -23 -6
-5 9 -4 11 3 6 7 -4 12 -2 12 3 0 18 -19 12 -30 -10 -7 -11 -14 -18 -17 -16
-2 3 0 15 7 26 6 12 7 21 3 20 -22 -4 -35 2 -30 14 3 8 -1 14 -8 14 -7 0 -11
-6 -8 -13 3 -8 -2 -11 -13 -10 -10 2 -21 11 -25 22 -7 18 -8 18 -8 -1 -1 -18
-2 -18 -17 3 -8 12 -19 20 -24 17 -4 -3 -10 0 -12 7 -3 7 -7 5 -11 -6 -4 -9
-3 -15 2 -11 5 3 12 1 16 -5 4 -6 10 -8 15 -5 4 3 11 -2 14 -11 3 -8 10 -12
16 -9 5 3 10 2 10 -4 0 -5 -9 -9 -19 -8 -11 0 -18 4 -15 8 4 7 -21 21 -41 24
-5 0 -9 6 -8 13 2 6 -4 9 -12 6 -8 -4 -12 -11 -8 -18 4 -7 1 -7 -9 1 -8 7 -18
11 -21 8 -4 -3 -4 -2 -1 3 3 4 11 7 17 7 5 0 12 7 14 15 3 9 1 11 -4 5 -12
-15 -47 -19 -37 -4 5 8 3 10 -5 5 -7 -5 -10 -14 -7 -22 3 -8 1 -14 -4 -14 -6
0 -10 12 -11 28 0 24 -1 24 -8 7 -5 -11 -6 -24 -4 -30 2 -5 -4 0 -15 13 -20
22 -39 31 -28 13 8 -13 -16 -20 -35 -10 -9 5 -27 2 -43 -6 -14 -8 -25 -11 -22
-7 2 4 -1 18 -8 31 -11 20 -14 21 -19 7 -4 -10 -3 -15 3 -11 6 3 10 1 10 -5 0
-6 -8 -10 -17 -8 -11 2 -17 -2 -15 -10 1 -8 -2 -11 -8 -7 -7 4 -7 12 0 25 7
13 7 21 -2 26 -6 4 -8 3 -5 -3z m-123 -43 c0 -5 -7 -7 -15 -4 -8 4 -12 10 -9
15 6 11 24 2 24 -11z m-67 -50 c-3 -12 -8 -19 -11 -16 -5 6 5 36 12 36 2 0 2
-9 -1 -20z m643 -2 c2 -2 -1 -10 -6 -18 -8 -12 -10 -11 -10 5 0 17 -2 17 -10
5 -9 -13 -10 -13 -10 0 0 13 -1 13 -10 0 -5 -8 -10 -10 -10 -4 0 17 10 23 32
19 12 -3 22 -6 24 -7z m-742 -10 c-3 -4 -9 -8 -15 -8 -5 0 -9 4 -9 8 0 5 7 9
15 9 8 0 12 -4 9 -9z m-35 -21 c0 -8 -3 -7 -6 2 -4 11 -7 11 -14 0 -4 -7 -11
-10 -16 -6 -9 9 17 28 29 21 4 -3 8 -11 7 -17z m-99 -31 c0 -2 -8 -10 -17 -17
-16 -13 -17 -12 -4 4 13 16 21 21 21 13z m1036 -18 c4 -7 3 -8 -4 -4 -7 4 -12
2 -12 -3 0 -6 -5 -11 -11 -11 -8 0 -8 5 1 15 15 18 17 18 26 3z m-56 -8 c0 -5
-2 -10 -4 -10 -3 0 -8 5 -11 10 -3 6 -1 10 4 10 6 0 11 -4 11 -10z m-983 -16
c-3 -3 -12 -4 -19 -1 -8 3 -5 6 6 6 11 1 17 -2 13 -5z m1047 -2 c3 -5 -1 -9
-9 -9 -8 0 -12 4 -9 9 3 4 7 8 9 8 2 0 6 -4 9 -8z m106 -51 c3 -2 -3 -1 -12 2
-13 4 -18 1 -19 -11 0 -14 -2 -14 -8 3 -15 37 1 40 39 6z m-1210 9 c0 -5 -2
-10 -4 -10 -3 0 -8 5 -11 10 -3 6 -1 10 4 10 6 0 11 -4 11 -10z m1255 -40 c3
-5 1 -10 -4 -10 -6 0 -11 5 -11 10 0 6 2 10 4 10 3 0 8 -4 11 -10z m-1375 -34
c0 -3 -4 -8 -10 -11 -5 -3 -10 -1 -10 4 0 6 5 11 10 11 6 0 10 -2 10 -4z
m1420 -28 c0 -5 4 -7 9 -3 10 6 24 -11 27 -32 1 -7 -2 -13 -7 -13 -5 0 -9 10
-9 23 0 18 -2 19 -10 7 -7 -11 -10 -11 -10 -2 0 10 -5 10 -22 2 -21 -10 -21
-10 -6 3 14 11 15 16 5 26 -9 10 -8 11 6 6 9 -4 17 -11 17 -17z m-1520 -123
c0 -2 -9 -3 -19 -2 -11 0 -18 5 -15 9 4 6 34 0 34 -7z m1693 -56 c-9 -9 -12
-7 -10 9 1 14 5 18 11 12 7 -7 6 -14 -1 -21z m-1833 1 c0 -5 -5 -10 -11 -10
-5 0 -7 5 -4 10 3 6 8 10 11 10 2 0 4 -4 4 -10z m-72 -14 c-14 -10 -15 -15 -5
-26 10 -10 9 -11 -2 -5 -11 6 -13 4 -8 -8 9 -25 2 -21 -18 9 -9 15 -13 24 -7
20 5 -3 15 1 22 9 7 8 18 15 24 15 6 0 3 -6 -6 -14z m1982 0 c0 -2 -7 -7 -16
-10 -8 -3 -12 -2 -9 4 6 10 25 14 25 6z m147 -59 c0 -9 -3 -14 -6 -11 -3 3 -6
11 -6 17 0 5 -6 12 -14 15 -8 3 -11 0 -8 -5 3 -5 0 -10 -7 -10 -9 0 -10 6 -2
22 9 20 11 20 26 5 9 -9 17 -24 17 -33z m-2189 8 c-3 -3 -9 2 -12 12 -6 14 -5
15 5 6 7 -7 10 -15 7 -18z m2217 5 c3 -5 1 -10 -4 -10 -6 0 -11 5 -11 10 0 6
2 10 4 10 3 0 8 -4 11 -10z m55 -24 c0 4 5 3 11 -3 8 -8 8 -16 0 -30 -11 -16
-11 -16 -6 5 4 12 3 22 -2 21 -19 -3 -33 2 -33 12 0 8 5 8 15 -1 8 -7 15 -9
15 -4z m-2500 -121 c0 -2 -6 -8 -13 -14 -10 -8 -14 -7 -14 2 0 8 6 14 14 14 7
0 13 -1 13 -2z m2702 -29 c7 4 10 4 6 -1 -4 -4 -3 -14 3 -22 9 -9 8 -13 0 -13
-6 0 -11 4 -11 9 0 5 -9 13 -20 16 -11 3 -20 11 -20 17 0 7 5 6 15 -2 8 -6 20
-8 27 -4z m-44 -31 c-3 -3 -9 2 -12 12 -6 14 -5 15 5 6 7 -7 10 -15 7 -18z
m-2708 -9 c0 -2 -7 -6 -15 -10 -8 -3 -15 -1 -15 4 0 6 7 10 15 10 8 0 15 -2
15 -4z m-110 -160 c0 -3 -4 -8 -10 -11 -5 -3 -10 -1 -10 4 0 6 5 11 10 11 6 0
10 -2 10 -4z m-50 -56 c-8 -5 -9 -13 -4 -21 6 -11 3 -10 -10 1 -11 8 -14 16
-7 18 6 2 9 8 6 13 -4 5 1 6 10 2 12 -4 13 -8 5 -13z m3064 -19 c-4 -3 -9 0
-11 7 -3 6 -10 9 -15 6 -7 -4 -8 -2 -4 5 6 9 11 9 22 0 8 -6 12 -15 8 -18z
m-29 -9 c-3 -3 -11 0 -18 7 -9 10 -8 11 6 5 10 -3 15 -9 12 -12z m38 -33 c13
2 8 -13 -6 -15 -7 -1 -13 9 -14 25 -1 20 0 22 6 8 4 -10 10 -18 14 -18z
m-3083 11 c0 -5 -2 -10 -4 -10 -3 0 -8 5 -11 10 -3 6 -1 10 4 10 6 0 11 -4 11
-10z m-35 -159 c3 -6 -3 -9 -14 -8 -11 0 -17 5 -15 9 7 11 22 10 29 -1z m3152
-74 c0 -8 -6 -14 -14 -14 -9 0 -10 4 -2 14 6 7 12 13 14 13 1 0 2 -6 2 -13z
m-3160 -42 c0 -8 -4 -12 -9 -9 -5 3 -6 10 -3 15 9 13 12 11 12 -6z m3165 -37
c-6 -6 -15 -8 -19 -4 -4 4 -1 11 7 16 19 12 27 3 12 -12z m-3272 -41 c0 -4 -6
-2 -14 5 -8 7 -12 17 -9 22 5 8 23 -12 23 -27z m3241 -126 c-7 -12 -17 -21
-24 -21 -9 0 -8 3 1 9 7 4 14 17 15 29 1 13 5 18 10 13 5 -5 4 -18 -2 -30z
m-4 -44 c4 -6 0 -8 -10 -4 -11 4 -23 -3 -37 -20 -11 -14 -20 -21 -20 -16 0 6
7 16 15 23 9 7 14 19 11 25 -6 15 31 8 41 -8z m-3562 -77 c3 -6 -1 -7 -9 -4
-18 7 -21 14 -7 14 6 0 13 -4 16 -10z m-61 -47 c4 -10 4 -15 1 -11 -11 11 -45
-25 -35 -37 5 -6 5 -17 0 -25 -7 -11 -10 -12 -10 -2 0 7 -5 10 -12 6 -7 -5 -8
-3 -2 7 5 8 9 19 9 24 0 8 31 48 41 54 1 1 5 -7 8 -16z m3662 -15 c-14 -23
-21 -23 -23 1 -1 13 4 19 16 18 15 -1 17 -4 7 -19z m48 -54 c3 -8 2 -12 -4 -9
-6 3 -10 10 -10 16 0 14 7 11 14 -7z m159 -87 c-2 -4 -5 -7 -8 -7 -3 0 -9 0
-15 0 -5 0 -10 4 -10 9 0 5 8 8 18 7 9 -2 16 -6 15 -9z m-3975 -30 c8 -10 6
-13 -9 -14 -19 -2 -25 8 -12 20 8 9 9 9 21 -6z m-14 -39 c-3 -5 -10 -5 -16 -2
-6 4 -8 -2 -4 -17 3 -13 3 -18 0 -11 -3 6 -10 10 -15 6 -11 -7 -8 18 4 27 12
9 37 7 31 -3z m-69 -142 c12 -12 12 -15 -2 -21 -10 -3 -14 -3 -10 1 4 4 2 13
-4 21 -15 17 -1 17 16 -1z m4245 -116 c0 -5 -5 -10 -11 -10 -5 0 -7 5 -4 10 3
6 8 10 11 10 2 0 4 -4 4 -10z m-4245 -130 c-3 -5 -12 -10 -18 -10 -7 0 -6 4 3
10 19 12 23 12 15 0z m4325 -114 c0 -2 -7 -7 -16 -10 -8 -3 -12 -2 -9 4 6 10
25 14 25 6z m-3 -122 c-3 -3 -12 -4 -19 -1 -8 3 -5 6 6 6 11 1 17 -2 13 -5z
m-66 -177 c-10 -9 -11 -8 -5 6 3 10 9 15 12 12 3 -3 0 -11 -7 -18z m-4190 -14
c1 -10 1 -22 0 -27 -1 -5 6 -6 16 -2 17 6 17 5 1 -7 -18 -14 -15 -28 5 -23 7
2 8 1 4 -2 -4 -2 -2 -11 5 -20 11 -13 11 -14 -1 -7 -11 6 -13 4 -7 -11 5 -14
4 -16 -4 -8 -6 6 -13 20 -15 30 -2 11 -4 20 -5 22 -2 1 -3 5 -4 10 -1 4 -7 17
-14 28 -11 21 -7 34 10 34 4 0 9 -8 9 -17z m4154 -102 c3 -5 2 -12 -3 -15 -5
-3 -9 1 -9 9 0 17 3 19 12 6z m-4055 -29 c0 -5 -7 -9 -15 -9 -8 0 -12 4 -9 9
3 4 9 8 15 8 5 0 9 -4 9 -8z m70 -132 c8 -5 12 -11 10 -14 -3 -2 -14 2 -24 10
-22 15 -10 19 14 4z m65 -60 c3 -6 -1 -7 -9 -4 -18 7 -21 14 -7 14 6 0 13 -4
16 -10z m15 -50 c0 -5 -2 -10 -4 -10 -3 0 -8 5 -11 10 -3 6 -1 10 4 10 6 0 11
-4 11 -10z m85 -30 c3 -5 1 -10 -4 -10 -6 0 -11 5 -11 10 0 6 2 10 4 10 3 0 8
-4 11 -10z m3615 -26 c0 -2 -9 0 -20 6 -11 6 -20 13 -20 16 0 2 9 0 20 -6 11
-6 20 -13 20 -16z m-3559 -41 c-8 -15 -10 -15 -11 -2 0 17 10 32 18 25 2 -3
-1 -13 -7 -23z m3466 5 c2 -17 0 -19 -7 -8 -5 8 -6 18 -4 22 8 12 10 10 11
-14z m-3437 -8 c0 -5 -5 -10 -11 -10 -5 0 -7 5 -4 10 3 6 8 10 11 10 2 0 4 -4
4 -10z m75 -30 c3 -5 1 -10 -4 -10 -6 0 -11 5 -11 10 0 6 2 10 4 10 3 0 8 -4
11 -10z m3282 -5 c0 -8 -4 -12 -9 -9 -5 3 -6 10 -3 15 9 13 12 11 12 -6z
m-3206 -32 c13 -17 13 -17 -5 -3 -18 14 -19 13 -12 -5 5 -15 4 -17 -5 -8 -6 6
-8 16 -5 22 9 14 11 14 27 -6z m89 -24 c0 -5 -8 -9 -17 -8 -11 0 -13 3 -5 6 6
2 9 10 6 15 -4 7 -2 8 4 4 7 -4 12 -11 12 -17z m2955 -10 c-4 -5 -12 -9 -18
-8 -9 0 -8 2 1 6 6 2 9 10 6 15 -4 7 -2 8 5 4 6 -4 9 -12 6 -17z m-2920 -37
c-3 -3 -11 0 -18 7 -9 10 -8 11 6 5 10 -3 15 -9 12 -12z m65 -8 c0 -8 -5 -12
-10 -9 -6 4 -8 11 -5 16 9 14 15 11 15 -7z m269 -11 c-12 -15 -12 -16 3 -10
12 4 15 2 11 -9 -5 -14 -8 -14 -22 1 -14 14 -14 17 -1 25 22 14 24 12 9 -7z
m164 -78 c-3 -9 -8 -14 -10 -11 -3 3 -2 9 2 15 9 16 15 13 8 -4z m1705 -30
c-3 -3 -9 2 -12 12 -6 14 -5 15 5 6 7 -7 10 -15 7 -18z m-165 -38 c3 -8 -1
-14 -8 -14 -7 0 -11 6 -8 14 3 7 6 13 8 13 2 0 5 -6 8 -13z m57 7 c0 -8 -19
-13 -24 -6 -3 5 1 9 9 9 8 0 15 -2 15 -3z m-487 -19 c9 -21 -9 -27 -24 -8 -10
12 -10 14 -1 9 6 -4 12 -2 12 3 0 16 7 13 13 -4z m30 -5 c3 -11 1 -18 -4 -14
-5 3 -9 12 -9 20 0 20 7 17 13 -6z m200 5 c-3 -9 -8 -14 -10 -11 -3 3 -2 9 2
15 9 16 15 13 8 -4z m-379 -40 c-4 -8 -1 -22 5 -29 8 -10 9 -16 1 -21 -6 -3
-8 -10 -5 -15 3 -5 0 -12 -7 -16 -7 -4 -10 -4 -6 1 4 4 3 14 -3 21 -7 8 -7 14
1 19 6 3 8 11 4 16 -6 10 2 39 10 39 3 0 3 -7 0 -15z m-34 -21 c0 -8 -19 -13
-24 -6 -3 5 1 9 9 9 8 0 15 -2 15 -3z m36 -97 c1 -11 0 -16 -3 -13 -4 3 -13 0
-22 -6 -9 -7 -7 -2 4 11 l20 24 -23 -5 c-13 -4 -20 -2 -16 3 9 16 37 6 40 -14z
m1 -34 c-4 -3 -2 -12 5 -20 8 -11 7 -12 -6 -7 -18 7 -22 34 -4 34 6 0 8 -3 5
-7z m-37 -33 c0 -5 -2 -10 -4 -10 -3 0 -8 5 -11 10 -3 6 -1 10 4 10 6 0 11 -4
11 -10z m-2 -65 c-3 -3 -9 2 -12 12 -6 14 -5 15 5 6 7 -7 10 -15 7 -18z m43
-78 c-13 -13 -26 -3 -16 12 3 6 11 8 17 5 6 -4 6 -10 -1 -17z m-1 -60 c0 -16
-18 3 -23 25 -6 22 -5 22 8 4 8 -11 15 -24 15 -29z m-220 23 c0 -5 -2 -10 -4
-10 -3 0 -8 5 -11 10 -3 6 -1 10 4 10 6 0 11 -4 11 -10z m180 -14 c0 -3 -4 -8
-10 -11 -5 -3 -10 -1 -10 4 0 6 5 11 10 11 6 0 10 -2 10 -4z m38 -71 c-3 -3
-13 -2 -22 1 -14 5 -15 9 -4 15 13 8 36 -6 26 -16z m-221 -12 c-18 -5 -18 -5
0 -19 17 -14 16 -14 -5 -4 -25 12 -21 31 6 29 15 -1 14 -2 -1 -6z m223 -45 c0
-17 -10 -6 -25 25 l-16 32 20 -25 c11 -14 21 -28 21 -32z m-220 -98 c0 -5 -2
-10 -4 -10 -3 0 -8 5 -11 10 -3 6 -1 10 4 10 6 0 11 -4 11 -10z m-8 -97 c-6
-2 -9 -10 -6 -15 4 -7 2 -8 -5 -4 -13 9 -5 26 12 25 9 0 8 -2 -1 -6z m9 -36
c-10 -9 -11 -8 -5 6 3 10 9 15 12 12 3 -3 0 -11 -7 -18z m169 -3 c0 -8 -19
-13 -24 -6 -3 5 1 9 9 9 8 0 15 -2 15 -3z m-156 -17 c-3 -8 2 -20 11 -27 8 -7
15 -20 14 -29 0 -11 -3 -9 -9 7 -5 12 -16 25 -25 28 -12 5 -13 9 -4 20 14 18
20 18 13 1z m111 -55 c-3 -3 -11 0 -18 7 -9 10 -8 11 6 5 10 -3 15 -9 12 -12z
m-31 -18 c5 -14 4 -15 -9 -4 -17 14 -19 20 -6 20 5 0 12 -7 15 -16z"/>
<path d="M2570 4661 c0 -6 -7 -11 -15 -11 -8 0 -15 -5 -15 -10 0 -7 8 -7 23 1
30 16 30 16 18 24 -6 3 -11 1 -11 -4z"/>
<path d="M2295 4650 c6 -10 4 -12 -11 -6 -15 6 -17 5 -6 -5 9 -9 15 -10 23 -2
8 8 7 13 -2 18 -8 6 -10 4 -4 -5z"/>
<path d="M2441 4644 c0 -11 3 -14 6 -6 3 7 2 16 -1 19 -3 4 -6 -2 -5 -13z"/>
<path d="M2210 4641 c0 -6 4 -13 10 -16 6 -3 7 1 4 9 -7 18 -14 21 -14 7z"/>
<path d="M2605 4640 c3 -5 8 -10 11 -10 2 0 4 5 4 10 0 6 -5 10 -11 10 -5 0
-7 -4 -4 -10z"/>
<path d="M2030 4561 c0 -6 4 -13 10 -16 6 -3 7 1 4 9 -7 18 -14 21 -14 7z"/>
<path d="M3036 4541 c5 -18 3 -22 -7 -15 -12 6 -12 5 0 -9 7 -9 15 -17 16 -17
1 0 9 8 16 17 12 14 12 16 0 8 -11 -6 -13 -4 -8 9 4 9 3 15 -2 11 -5 -3 -12 1
-15 7 -3 7 -3 2 0 -11z"/>
<path d="M3110 4501 c0 -6 4 -12 8 -15 5 -3 9 1 9 9 0 8 -4 15 -9 15 -4 0 -8
-4 -8 -9z"/>
<path d="M3140 4476 c0 -2 7 -7 16 -10 8 -3 12 -2 9 4 -6 10 -25 14 -25 6z"/>
<path d="M1874 4409 c-8 -14 14 -19 25 -6 8 10 7 14 -5 14 -8 0 -17 -4 -20 -8z"/>
<path d="M1797 4337 c4 -6 -1 -8 -11 -4 -9 4 -14 3 -11 -2 3 -5 1 -12 -5 -16
-6 -4 -8 -11 -5 -16 6 -8 -8 -13 -27 -10 -5 0 -8 -3 -8 -9 0 -5 4 -10 8 -10
11 0 49 29 39 30 -4 0 4 11 19 23 20 17 23 24 11 24 -9 0 -13 -5 -10 -10z"/>
<path d="M1630 4180 c-9 -6 -10 -10 -3 -10 6 0 15 5 18 10 8 12 4 12 -15 0z"/>
<path d="M3497 4161 c-4 -17 -3 -21 5 -13 5 5 8 16 6 23 -3 8 -7 3 -11 -10z"/>
<path d="M3540 4164 c0 -17 24 -34 37 -26 7 5 7 11 -3 20 -11 10 -14 10 -14 0
0 -9 -3 -9 -10 2 -5 8 -10 10 -10 4z"/>
<path d="M3596 4157 c3 -10 9 -15 12 -12 3 3 0 11 -7 18 -10 9 -11 8 -5 -6z"/>
<path d="M1480 4140 c-8 -5 -10 -10 -5 -10 6 0 17 5 25 10 8 5 11 10 5 10 -5
0 -17 -5 -25 -10z"/>
<path d="M1438 4108 c10 -13 10 -17 0 -21 -7 -2 -10 -7 -7 -11 3 -4 11 0 18 7
9 11 7 17 -6 28 -16 13 -17 12 -5 -3z"/>
<path d="M1395 4090 c-4 -6 -11 -7 -17 -4 -7 4 -8 2 -4 -4 4 -7 2 -12 -5 -12
-7 0 -10 -3 -6 -6 3 -4 18 3 33 15 15 11 22 21 16 21 -6 0 -14 -5 -17 -10z"/>
<path d="M1335 4069 c-4 -6 -5 -12 -2 -15 2 -3 7 2 10 11 7 17 1 20 -8 4z"/>
<path d="M1399 4063 c-13 -16 -12 -17 4 -4 9 7 17 15 17 17 0 8 -8 3 -21 -13z"/>
<path d="M1306 4021 c-4 -5 -2 -12 3 -15 5 -4 12 -2 15 3 4 5 2 12 -3 15 -5 4
-12 2 -15 -3z"/>
<path d="M3870 4000 c-8 -15 -8 -18 3 -14 8 3 14 11 14 19 0 20 -4 19 -17 -5z"/>
<path d="M1235 3980 c-3 -5 -1 -10 4 -10 6 0 11 5 11 10 0 6 -2 10 -4 10 -3 0
-8 -4 -11 -10z"/>
<path d="M3906 3979 c2 -4 -1 -9 -8 -11 -9 -3 -9 -6 0 -12 7 -4 12 -2 12 4 0
6 4 9 8 6 5 -3 9 1 9 8 0 7 -6 13 -13 13 -7 0 -11 -4 -8 -8z"/>
<path d="M4035 3800 c-3 -5 -1 -11 4 -14 5 -4 13 -1 16 4 5 7 11 5 19 -6 10
-13 15 -14 21 -4 5 8 4 11 -3 6 -5 -3 -12 -1 -14 6 -5 14 -36 20 -43 8z"/>
<path d="M4075 3750 c-3 -5 -1 -10 4 -10 6 0 11 5 11 10 0 6 -2 10 -4 10 -3 0
-8 -4 -11 -10z"/>
<path d="M976 3565 c-3 -8 -1 -15 4 -15 6 0 10 7 10 15 0 8 -2 15 -4 15 -2 0
-6 -7 -10 -15z"/>
<path d="M4171 3554 c0 -11 3 -14 6 -6 3 7 2 16 -1 19 -3 4 -6 -2 -5 -13z"/>
<path d="M955 3521 c-6 -11 13 -26 22 -17 4 3 1 6 -6 6 -7 0 -9 5 -6 10 3 6 4
10 1 10 -3 0 -7 -4 -11 -9z"/>
<path d="M955 3460 c-3 -5 -1 -10 4 -10 6 0 11 5 11 10 0 6 -2 10 -4 10 -3 0
-8 -4 -11 -10z"/>
<path d="M4156 3452 c-3 -5 1 -9 9 -9 8 0 12 4 9 9 -3 4 -7 8 -9 8 -2 0 -6 -4
-9 -8z"/>
<path d="M4190 3400 c0 -5 5 -10 11 -10 5 0 7 5 4 10 -3 6 -8 10 -11 10 -2 0
-4 -4 -4 -10z"/>
<path d="M946 3335 c4 -8 11 -15 16 -15 6 0 5 6 -2 15 -7 8 -14 15 -16 15 -2
0 -1 -7 2 -15z"/>
<path d="M946 3298 c3 -5 10 -6 15 -3 13 9 11 12 -6 12 -8 0 -12 -4 -9 -9z"/>
<path d="M4160 3220 c-13 -8 -12 -10 3 -10 9 0 17 5 17 10 0 12 -1 12 -20 0z"/>
<path d="M575 3089 c-4 -6 -5 -12 -2 -15 2 -3 7 2 10 11 7 17 1 20 -8 4z"/>
<path d="M535 3060 c3 -6 14 -10 23 -10 15 0 15 -2 2 -10 -8 -5 -10 -10 -4
-10 6 0 18 8 25 18 7 9 10 14 5 10 -4 -4 -19 -3 -33 3 -16 6 -22 6 -18 -1z"/>
<path d="M4270 2886 c0 -8 4 -17 8 -20 4 -2 8 4 8 15 0 10 -4 19 -8 19 -4 0
-8 -6 -8 -14z"/>
<path d="M405 2879 c-4 -6 -5 -12 -2 -15 2 -3 7 2 10 11 7 17 1 20 -8 4z"/>
<path d="M370 2826 c0 -2 6 -9 14 -15 11 -9 16 -9 22 0 4 8 3 9 -4 5 -7 -4
-12 -2 -12 3 0 6 -4 11 -10 11 -5 0 -10 -2 -10 -4z"/>
<path d="M293 2645 c0 -8 4 -12 9 -9 5 3 6 10 3 15 -9 13 -12 11 -12 -6z"/>
<path d="M4548 2577 c7 -8 8 -18 4 -22 -4 -5 -1 -5 6 -1 17 10 15 23 -4 30
-13 5 -14 4 -6 -7z"/>
<path d="M285 2539 c-11 -17 -13 -59 -3 -53 5 3 7 11 5 17 -2 7 0 20 5 30 9
18 4 24 -7 6z"/>
<path d="M4565 2540 c-3 -5 -1 -10 4 -10 6 0 11 5 11 10 0 6 -2 10 -4 10 -3 0
-8 -4 -11 -10z"/>
<path d="M4595 2460 c3 -5 8 -10 11 -10 2 0 4 5 4 10 0 6 -5 10 -11 10 -5 0
-7 -4 -4 -10z"/>
<path d="M4620 2445 c-1 -11 -3 -28 -5 -38 -3 -15 -1 -16 11 -6 11 9 14 9 14
-1 0 -8 3 -10 6 -7 4 4 2 12 -3 19 -6 7 -13 22 -16 33 l-5 20 -2 -20z"/>
<path d="M230 2446 c0 -2 7 -7 16 -10 8 -3 12 -2 9 4 -6 10 -25 14 -25 6z"/>
<path d="M233 2365 c0 -8 4 -12 9 -9 5 3 6 10 3 15 -9 13 -12 11 -12 -6z"/>
<path d="M4636 2352 c-3 -5 1 -9 9 -9 8 0 12 4 9 9 -3 4 -7 8 -9 8 -2 0 -6 -4
-9 -8z"/>
<path d="M4640 2320 c-13 -8 -12 -10 3 -10 9 0 17 5 17 10 0 12 -1 12 -20 0z"/>
<path d="M256 2294 c-5 -14 -4 -15 9 -4 9 7 18 10 21 7 3 -3 -3 -12 -15 -19
-12 -7 -21 -17 -21 -22 0 -4 6 -3 14 3 9 7 17 8 20 2 3 -5 1 -11 -6 -13 -7 -3
-9 -12 -4 -23 10 -28 23 -4 21 43 -1 40 -27 57 -39 26z"/>
<path d="M309 2083 c-1 -5 -1 -12 0 -17 1 -4 -4 -16 -11 -25 -11 -14 -11 -14
3 -4 9 7 19 9 24 5 4 -4 3 3 -3 14 -6 12 -8 24 -5 28 3 3 3 6 0 6 -4 0 -8 -3
-8 -7z"/>
<path d="M316 1927 c3 -10 9 -15 12 -12 3 3 0 11 -7 18 -10 9 -11 8 -5 -6z"/>
<path d="M4621 1916 c-9 -10 -8 -15 3 -19 9 -4 18 -1 22 5 4 7 3 8 -4 4 -7 -4
-12 -3 -12 3 0 5 6 12 13 14 7 4 8 6 1 6 -6 1 -17 -5 -23 -13z"/>
<path d="M4567 1796 c-4 -10 -1 -13 9 -9 15 6 19 23 5 23 -5 0 -11 -7 -14 -14z"/>
<path d="M420 1778 c0 -3 9 -15 20 -28 11 -13 20 -19 20 -13 0 5 -9 18 -20 28
-11 10 -20 16 -20 13z"/>
<path d="M4525 1730 c-3 -5 -3 -10 1 -10 4 0 -2 -10 -14 -23 -21 -22 -21 -23
-2 -24 11 -1 20 1 21 5 0 4 3 19 5 35 5 28 0 35 -11 17z"/>
<path d="M515 1620 c3 -5 8 -10 11 -10 2 0 4 5 4 10 0 6 -5 10 -11 10 -5 0 -7
-4 -4 -10z"/>
<path d="M4460 1614 c-10 -12 -11 -17 -1 -27 10 -9 11 -8 5 7 -5 13 -4 17 4
12 6 -3 13 -2 16 3 11 17 -11 21 -24 5z"/>
<path d="M585 1560 c-3 -6 1 -7 9 -4 18 7 21 14 7 14 -6 0 -13 -4 -16 -10z"/>
<path d="M732 1465 c4 -4 0 -13 -8 -20 -15 -11 -15 -12 -1 -12 20 0 30 24 14
33 -7 4 -9 4 -5 -1z"/>
<path d="M4270 1420 c0 -5 5 -10 10 -10 6 0 10 5 10 10 0 6 -4 10 -10 10 -5 0
-10 -4 -10 -10z"/>
<path d="M4209 1398 c-14 -26 -21 -54 -11 -43 4 4 7 12 7 18 0 7 8 11 17 9 23
-4 31 13 14 28 -12 9 -17 7 -27 -12z m26 2 c3 -5 1 -10 -4 -10 -6 0 -11 5 -11
10 0 6 2 10 4 10 3 0 8 -4 11 -10z"/>
<path d="M813 1375 c0 -8 4 -12 9 -9 5 3 6 10 3 15 -9 13 -12 11 -12 -6z"/>
<path d="M974 1324 c1 -8 4 -15 7 -16 2 -2 3 -1 2 1 -2 2 2 9 7 16 7 8 5 12
-4 12 -8 0 -13 -6 -12 -13z"/>
<path d="M1014 1308 c4 -30 36 -54 36 -28 0 6 -5 9 -12 8 -7 -2 -12 2 -13 9 0
6 -3 14 -7 18 -3 4 -6 1 -4 -7z"/>
<path d="M1300 1278 c0 -4 4 -8 9 -8 6 0 12 4 15 8 3 5 -1 9 -9 9 -8 0 -15 -4
-15 -9z"/>
<path d="M3931 1274 c0 -11 3 -14 6 -6 3 7 2 16 -1 19 -3 4 -6 -2 -5 -13z"/>
<path d="M3610 1276 c0 -2 7 -7 16 -10 8 -3 12 -2 9 4 -6 10 -25 14 -25 6z"/>
<path d="M3516 1218 c3 -4 0 -8 -7 -8 -7 0 -10 -3 -6 -6 3 -3 16 1 28 9 22 16
22 16 1 14 -11 0 -18 -5 -16 -9z"/>
<path d="M1533 1195 c0 -8 4 -15 9 -15 4 0 8 4 8 9 0 6 -4 12 -8 15 -5 3 -9
-1 -9 -9z"/>
<path d="M1624 1164 c-4 -11 -9 -23 -12 -28 -3 -5 0 -6 6 -2 7 4 12 14 12 22
0 8 5 14 11 14 5 0 7 -4 4 -10 -4 -6 1 -7 12 -3 16 6 16 5 4 -10 -8 -10 -11
-21 -7 -24 10 -11 37 -12 30 -2 -3 5 -10 7 -15 4 -5 -4 -9 -2 -9 4 0 16 22 24
30 11 4 -7 13 -9 19 -6 6 4 9 12 5 17 -3 5 -10 7 -15 4 -5 -4 -9 -2 -9 3 0 5
-6 9 -12 9 -7 0 -21 4 -30 8 -13 5 -20 1 -24 -11z"/>
<path d="M3262 1141 c-7 -4 -8 -12 -2 -21 8 -13 10 -12 10 2 0 12 6 16 21 13
12 -3 19 -1 15 2 -10 10 -32 12 -44 4z"/>
<path d="M3230 1120 c6 -11 13 -20 16 -20 2 0 0 9 -6 20 -6 11 -13 20 -16 20
-2 0 0 -9 6 -20z"/>
<path d="M1830 1120 c0 -5 5 -10 11 -10 5 0 7 5 4 10 -3 6 -8 10 -11 10 -2 0
-4 -4 -4 -10z"/>
<path d="M1860 1120 c0 -5 5 -10 11 -10 5 0 7 5 4 10 -3 6 -8 10 -11 10 -2 0
-4 -4 -4 -10z"/>
<path d="M3005 1121 c-3 -6 -11 -8 -17 -5 -7 4 -8 2 -4 -5 4 -6 12 -9 17 -6 5
4 9 1 9 -6 0 -10 3 -10 12 -1 9 9 9 15 1 23 -8 8 -13 8 -18 0z"/>
<path d="M2579 1108 c-5 -16 -4 -46 2 -42 4 2 7 13 6 24 -1 17 -5 26 -8 18z"/>
<path d="M2756 1102 c-3 -5 1 -9 9 -9 8 0 12 4 9 9 -3 4 -7 8 -9 8 -2 0 -6 -4
-9 -8z"/>
<path d="M3196 1098 c3 -5 10 -6 15 -3 13 9 11 12 -6 12 -8 0 -12 -4 -9 -9z"/>
<path d="M2259 1083 c-13 -17 -13 -17 6 -3 11 8 22 16 24 17 2 2 0 3 -6 3 -6
0 -17 -8 -24 -17z"/>
<path d="M2290 1020 c0 -6 -4 -8 -10 -5 -6 4 -7 -1 -3 -11 4 -11 8 -13 11 -6
2 7 8 9 13 6 6 -4 6 -10 0 -18 -7 -8 -6 -17 1 -26 8 -12 9 -12 4 2 -3 10 -1
20 4 23 12 7 6 38 -8 43 -7 2 -12 -1 -12 -8z"/>
<path d="M2273 955 c0 -8 4 -12 9 -9 5 3 6 10 3 15 -9 13 -12 11 -12 -6z"/>
<path d="M2290 928 c0 -9 7 -19 16 -22 15 -6 15 -4 3 11 -7 10 -15 20 -16 22
-2 2 -3 -3 -3 -11z"/>
<path d="M2255 860 c-3 -5 -1 -10 4 -10 6 0 11 5 11 10 0 6 -2 10 -4 10 -3 0
-8 -4 -11 -10z"/>
<path d="M2274 725 c1 -8 8 -21 16 -28 12 -10 12 -9 2 4 -6 9 -9 18 -6 21 3 3
1 9 -4 12 -6 3 -9 -1 -8 -9z"/>
<path d="M2273 675 c0 -8 4 -15 9 -15 4 0 8 4 8 9 0 6 -4 12 -8 15 -5 3 -9 -1
-9 -9z"/>
<path d="M2286 645 c-11 -8 -15 -15 -9 -15 6 0 16 7 23 15 16 19 11 19 -14 0z"/>
<path d="M2512 327 c-11 -13 -4 -31 14 -34 7 -1 9 8 6 22 -5 29 -6 29 -20 12z"/>
<path d="M2550 310 c0 -5 5 -10 11 -10 5 0 7 5 4 10 -3 6 -8 10 -11 10 -2 0
-4 -4 -4 -10z"/>
<path d="M2489 298 c0 -2 -2 -10 -4 -18 -2 -8 -5 -22 -7 -30 -3 -8 -3 -12 -1
-7 3 4 8 5 11 3 4 -2 8 9 9 25 1 16 0 29 -2 29 -3 0 -5 -1 -6 -2z"/>
</g>
</svg>
